<svg width="84" height="84" viewBox="0 0 98 98" fill="none" xmlns="http://www.w3.org/2000/svg">
<path d="M96.0863 50.8469H89.5785V46.2861C89.5785 43.0802 88.2065 40.149 85.9756 38.104V17.0948C85.9756 7.66866 78.1468 -7.1263e-07 68.5238 -7.1263e-07C58.9008 -7.1263e-07 51.0723 7.66866 51.0723 17.0948V38.1037C48.8412 40.1485 47.4694 43.0798 47.4694 46.2857V50.8467H43.5456C42.4885 50.8467 41.6315 51.7038 41.6315 52.7607C41.6315 53.8177 42.4885 54.6748 43.5456 54.6748H49.3835H52.4461V66.9242C52.4461 67.9811 53.303 68.8382 54.3602 68.8382H61.0594C62.1165 68.8382 62.9735 67.9811 62.9735 66.9242C62.9735 65.8672 62.1165 65.0101 61.0594 65.0101H56.2743V54.6744H80.7743V65.0101H75.6064C74.5493 65.0101 73.6923 65.8672 73.6923 66.9242C73.6923 67.9811 74.5493 68.8382 75.6064 68.8382H82.6885C83.7456 68.8382 84.6026 67.9811 84.6026 66.9242V54.6746H87.6651H94.1729V73.432H46.7035V67.2553C46.7035 61.3744 42.5063 56.3303 36.723 55.2611L31.6967 54.332C31.4582 54.288 31.2352 54.2064 31.03 54.0977C30.9137 53.9982 30.7854 53.9143 30.6493 53.8454C30.1298 53.4209 29.8027 52.7804 29.7939 52.073C33.7165 49.8284 36.3675 45.6048 36.3675 40.7709V33.3832C36.3675 26.2067 30.5287 20.368 23.352 20.368C16.1752 20.368 10.3364 26.2067 10.3364 33.3832V40.7709C10.3364 45.6037 12.9863 49.8267 16.9073 52.0715C16.8989 52.782 16.5695 53.4251 16.0464 53.8498C15.9151 53.9172 15.791 53.9982 15.6781 54.0941C15.471 54.2049 15.2455 54.2876 15.0043 54.3322L9.98037 55.2613C4.19745 56.3304 0 61.3746 0 67.2555V75.3464C0 76.4033 0.856948 77.2605 1.91411 77.2605H44.7891H96.0859C97.1431 77.2605 98 76.4033 98 75.3464V52.7611C98.0004 51.7038 97.1434 50.8469 96.0863 50.8469ZM54.9002 17.0948H54.9003C54.9003 9.77948 61.0117 3.82811 68.5238 3.82811C76.036 3.82811 82.1473 9.77967 82.1473 17.0948V35.8148C81.6164 35.6294 81.067 35.4801 80.4995 35.3752L76.0118 34.5454C75.2048 34.3961 74.6008 33.7423 74.497 32.9466C78.0186 30.886 80.3909 27.0655 80.3909 22.699V16.5382C80.3909 15.8595 80.0317 15.2317 79.4463 14.8879L72.7881 10.9763C71.9817 10.5024 70.9517 10.6808 70.3514 11.3972C68.6328 13.448 66.1126 14.6241 63.4369 14.6241H58.5705C57.5133 14.6241 56.6563 15.4813 56.6563 16.5382V22.699C56.6563 27.0644 59.0275 30.8842 62.548 32.9453C62.4448 33.7417 61.8405 34.3961 61.0332 34.5456L56.5474 35.375C55.9801 35.4799 55.4307 35.6292 54.9 35.8146V17.0948H54.9002ZM72.2464 29.8208C71.9143 29.8767 71.6111 30.0162 71.3605 30.2197C70.4778 30.5539 69.522 30.7382 68.5236 30.7382C67.5231 30.7382 66.5657 30.5529 65.6814 30.2176C65.4322 30.0162 65.1313 29.8774 64.8018 29.8214C62.2383 28.4764 60.4846 25.7896 60.4846 22.6994V18.4526H63.4371C66.6968 18.4526 69.7948 17.2269 72.1547 15.0443L76.5627 17.6338V22.6994C76.5629 25.7888 74.8096 28.4754 72.2464 29.8208ZM72.3017 36.7152L68.5248 41.8675L64.745 36.7135C65.3989 36.0528 65.8873 35.2349 66.1569 34.3282C66.9221 34.4838 67.7136 34.5659 68.5238 34.5659C69.3333 34.5659 70.124 34.4838 70.8885 34.3286C71.1578 35.2356 71.6471 36.0541 72.3017 36.7152ZM85.7503 50.8469H82.6877H54.3598H51.2972V46.2859C51.2972 42.7818 53.7982 39.7762 57.2436 39.1392L61.2349 38.4013L66.9813 46.2369C67.3419 46.7284 67.9152 47.019 68.525 47.019C69.1348 47.019 69.7081 46.7282 70.0685 46.2365L75.8122 38.4015L79.8033 39.1394C83.2491 39.7766 85.7501 42.782 85.7501 46.2861V50.8469H85.7503ZM14.1646 40.7705V33.3828C14.1646 28.3169 18.2861 24.1956 23.3522 24.1956C28.418 24.1956 32.5397 28.3167 32.5397 33.3828V40.7705C32.5397 45.8364 28.4182 49.9578 23.3522 49.9578C18.2861 49.9578 14.1646 45.8366 14.1646 40.7705ZM26.4785 54.5035L23.3522 55.3949L20.2233 54.5027C20.3661 54.1756 20.4812 53.8345 20.5658 53.4821C21.4637 53.6791 22.3955 53.7857 23.352 53.7857C24.3075 53.7857 25.2383 53.6793 26.1358 53.4829C26.2205 53.8353 26.3355 54.1764 26.4785 54.5035ZM42.8751 73.4322H3.82841V70.3697H3.82861H16.9188C17.976 70.3697 18.8329 69.5125 18.8329 68.4556C18.8329 67.3987 17.976 66.5415 16.9188 66.5415H3.85942C4.17563 62.8176 6.94478 59.7149 10.6765 59.0249L15.7005 58.0958C16.2255 57.9987 16.724 57.8359 17.1895 57.6182L22.8269 59.2258C22.9984 59.2748 23.1751 59.2993 23.3518 59.2993C23.5284 59.2993 23.7051 59.2748 23.8766 59.2258L29.5125 57.6188C29.9778 57.8362 30.4759 57.9989 31.0006 58.096L36.0268 59.0251C39.9948 59.7587 42.8751 63.2199 42.8751 67.2553V73.4322Z" transform="translate(0 20.7393)" fill="#4F4F4F"/>
<path d="M51.0097 0H27.0841C22.9154 0 19.5235 3.39171 19.5235 7.56033V10.3384H7.56055C3.39181 10.3384 0 13.7301 0 17.8987V28.4256C0.000191411 32.5942 3.392 35.986 7.56074 35.986H7.65644V42.4457C7.65644 43.2199 8.12291 43.9178 8.83803 44.2141C9.0748 44.3121 9.32344 44.3598 9.56998 44.3598C10.0682 44.3598 10.5579 44.1653 10.924 43.7991L18.7374 35.986H31.4866C35.6553 35.986 39.0471 32.5944 39.0471 28.4256V23.7337H42.0186L47.6466 29.3618C48.013 29.728 48.5024 29.9224 49.0007 29.9224C49.2472 29.9224 49.4959 29.8748 49.7326 29.7768C50.4479 29.4805 50.9142 28.7826 50.9142 28.0084V23.7337H51.0099C55.1787 23.7337 58.5705 20.342 58.5705 16.1734V7.56033C58.5703 3.39171 55.1787 0 51.0097 0ZM35.2189 28.4256C35.2189 30.4836 33.5444 32.1578 31.4866 32.1578H17.9446C17.437 32.1578 16.95 32.3596 16.5911 32.7185L11.4847 37.8248V34.0721C11.4847 33.0152 10.6277 32.158 9.57056 32.158H7.56074C5.50269 32.158 3.82841 30.4836 3.82841 28.4258V17.8985C3.82841 15.8405 5.50288 14.1661 7.56074 14.1661H31.4866C33.5446 14.1661 35.2189 15.8405 35.2189 17.8985V28.4256ZM54.7424 16.1734C54.7424 18.2314 53.068 19.9056 51.0101 19.9056H49.0003C47.9431 19.9056 47.0862 20.7627 47.0862 21.8197V23.3875L44.1649 20.466C43.806 20.1071 43.319 19.9054 42.8114 19.9054H39.0471V17.8985C39.0471 13.7299 35.6553 10.3382 31.4866 10.3382H23.3518V7.56033C23.3518 5.50233 25.0262 3.82811 27.0841 3.82811H51.0099C53.068 3.82811 54.7422 5.50253 54.7422 7.56033V16.1734H54.7424Z" transform="translate(0.000976562)" fill="#4F4F4F"/>
<path d="M3.26739 0.560817C2.91136 0.204994 2.41752 9.34597e-08 1.91411 9.34597e-08C1.4107 9.34597e-08 0.91686 0.204803 0.560835 0.560817C0.204811 0.916831 2.33656e-06 1.41066 2.33656e-06 1.91406C2.33656e-06 2.41937 0.204811 2.91128 0.560835 3.26729C0.91686 3.62503 1.4107 3.82811 1.91411 3.82811C2.41752 3.82811 2.91136 3.62503 3.26739 3.26729C3.62341 2.91128 3.82822 2.41726 3.82822 1.91406C3.82822 1.41066 3.62341 0.916831 3.26739 0.560817Z" transform="translate(62.2935 40.8438)" fill="#4F4F4F"/>
<path d="M3.26739 0.560817C2.91136 0.204803 2.41752 9.34597e-08 1.91411 9.34597e-08C1.4107 9.34597e-08 0.91686 0.204803 0.560835 0.560817C0.204811 0.916831 2.14964e-06 1.41066 2.14964e-06 1.91406C2.14964e-06 2.41745 0.204811 2.91128 0.560835 3.26729C0.91686 3.62503 1.4107 3.82811 1.91411 3.82811C2.41752 3.82811 2.91136 3.62503 3.26739 3.26729C3.62341 2.91128 3.82822 2.41745 3.82822 1.91406C3.82822 1.41066 3.62341 0.916831 3.26739 0.560817Z" transform="translate(70.9258 40.8438)" fill="#4F4F4F"/>
<path d="M6.47769 0.560817C5.73042 -0.186621 4.5184 -0.18662 3.77075 0.560627C3.63198 0.699588 3.40611 0.699396 3.26753 0.560627C2.52007 -0.187003 1.30786 -0.186813 0.560593 0.560817C-0.186867 1.30826 -0.186867 2.52004 0.560593 3.26767C1.3762 4.08325 2.44772 4.49114 3.51905 4.49114C4.59057 4.49114 5.66189 4.08325 6.47769 3.26767C7.22515 2.52004 7.22534 1.30826 6.47769 0.560817Z" transform="translate(64.9844 45.1895)" fill="#4F4F4F"/>
<path d="M3.2693 0.560819C2.91137 0.204805 2.41944 2.71033e-06 1.91603 2.71033e-06C1.4107 2.71033e-06 0.918771 0.204614 0.560832 0.560819C0.204807 0.916834 -1.35521e-06 1.41066 -1.35521e-06 1.91406C-1.35521e-06 2.41745 0.204807 2.91128 0.560832 3.2671C0.918771 3.62312 1.4107 3.82811 1.91603 3.82811C2.41944 3.82811 2.91156 3.62312 3.2693 3.2671C3.62533 2.91128 3.83014 2.41745 3.83014 1.91406C3.82995 1.41066 3.62514 0.916834 3.2693 0.560819Z" transform="translate(66.6094 85.75)" fill="#4F4F4F"/>
<path d="M16.8438 3.03744e-07H1.91411C0.856947 3.03744e-07 -1.10987e-07 0.857114 -1.10987e-07 1.91406C-1.10987e-07 2.971 0.856947 3.82811 1.91411 3.82811H16.8438C17.901 3.82811 18.7579 2.971 18.7579 1.91406C18.7579 0.857114 17.901 3.03744e-07 16.8438 3.03744e-07Z" transform="translate(7.65674 17.8027)" fill="#4F4F4F"/>
<path d="M3.26739 0.560819C2.91136 0.204804 2.41752 -1.05142e-06 1.91411 -1.05142e-06C1.4107 -1.05142e-06 0.916859 0.204613 0.560834 0.560819C0.204809 0.916833 9.34625e-07 1.41066 9.34625e-07 1.91405C9.34625e-07 2.41745 0.204809 2.91128 0.560834 3.2671C0.916859 3.62311 1.41051 3.82811 1.91411 3.82811C2.41752 3.82811 2.91136 3.6233 3.26739 3.2671C3.62341 2.91128 3.82822 2.41745 3.82822 1.91405C3.82822 1.41066 3.62341 0.916833 3.26739 0.560819Z" transform="translate(27.3716 24.6934)" fill="#4F4F4F"/>
<path d="M14.5469 -1.05142e-06H1.91411C0.856947 -1.05142e-06 -1.10987e-07 0.857113 -1.10987e-07 1.91405C-1.10987e-07 2.97099 0.856947 3.82811 1.91411 3.82811H14.5469C15.604 3.82811 16.461 2.97099 16.461 1.91405C16.461 0.857113 15.604 -1.05142e-06 14.5469 -1.05142e-06Z" transform="translate(7.65674 24.6934)" fill="#4F4F4F"/>
<path d="M3.26739 0.560818C2.91136 0.204612 2.41944 1.35517e-06 1.91411 1.35517e-06C1.4107 1.35517e-06 0.916859 0.204612 0.560834 0.560818C0.20481 0.916832 -2.21973e-07 1.41066 -2.21973e-07 1.91406C-2.21973e-07 2.41745 0.20481 2.91128 0.560834 3.2671C0.916859 3.62312 1.4107 3.82811 1.91411 3.82811C2.41944 3.82811 2.91136 3.62331 3.26739 3.2671C3.62533 2.91128 3.83014 2.41745 3.83014 1.91406C3.83014 1.41066 3.62533 0.916832 3.26739 0.560818Z" transform="translate(21.6787 87.2812)" fill="#4F4F4F"/>
</svg>
