<svg width="84" height="84" viewBox="0 0 84 84" fill="none" xmlns="http://www.w3.org/2000/svg">
<path d="M83.5195 0.480538C83.2117 0.172922 82.7943 0 82.359 0L41.9996 0.00213281C41.0936 0.00213281 40.3591 0.736803 40.3591 1.64275V6.33444L24.8074 10.5015C23.9321 10.7361 23.4126 11.6356 23.6473 12.5107L31.7074 42.5902L24.7347 49.5627C23.8473 48.2669 22.3572 47.4148 20.6717 47.4148H4.92184C2.20785 47.4148 0 49.6227 0 52.3365V79.078C0 81.7919 2.20785 83.9998 4.92184 83.9998H20.6719C22.9775 83.9998 24.9171 82.4058 25.4487 80.2625L27.3995 81.9637C28.9054 83.2768 30.8349 84 32.833 84H82.3593C83.2653 84 84 83.2653 84 82.3594V1.64062C83.9997 1.20553 83.8271 0.788155 83.5195 0.480538ZM22.3122 79.0781C22.3122 79.9826 21.5762 80.7188 20.6716 80.7188H4.92167C4.01701 80.7188 3.28101 79.9828 3.28101 79.0781V52.3367C3.28101 51.432 4.01701 50.696 4.92167 50.696H11.156V69.5952C11.156 70.5011 11.8907 71.2358 12.7967 71.2358C13.7027 71.2358 14.4374 70.5011 14.4374 69.5952V50.696H20.6717C21.5764 50.696 22.3124 51.432 22.3124 52.3367V79.0781H22.3122ZM27.2413 13.2462L40.3591 9.73135V15.8107L39.2595 16.1053C38.839 16.218 38.4809 16.4928 38.2633 16.8697C38.0457 17.2465 37.9867 17.6943 38.0994 18.1146C38.7299 20.4674 37.3286 22.8944 34.9757 23.5249C34.5549 23.6378 34.1961 23.913 33.9787 24.2907C33.7613 24.6682 33.7027 25.1168 33.8164 25.5374L40.2116 49.2178H36.9188L35.2218 42.5792C35.1679 42.3679 35.0734 42.1732 34.9469 42.0039L27.2413 13.2462ZM40.3591 23.3344V37.1781L37.3667 26.0982C38.6167 25.4528 39.6397 24.4871 40.3591 23.3344ZM63.9296 80.7186H32.8327C31.6276 80.7186 30.4639 80.2825 29.5556 79.4906L25.5936 76.0353V53.3443L32.7564 46.1817L34.0555 51.2643C34.2412 51.9907 34.8953 52.4986 35.645 52.4986L67.9011 52.5006C69.1677 52.5006 70.1981 53.5309 70.1981 54.7974C70.1981 56.064 69.1677 57.0943 67.9011 57.0943H51.3731C50.4671 57.0943 49.7324 57.829 49.7324 58.7349C49.7324 59.6409 50.4671 60.3755 51.3731 60.3755H73.0364C74.303 60.3755 75.3334 61.4058 75.3334 62.6724C75.3334 63.939 74.303 64.9693 73.0364 64.9693H51.3731C50.4671 64.9693 49.7324 65.7039 49.7324 66.6099C49.7324 67.5159 50.4671 68.2505 51.3731 68.2505H69.5259C70.7925 68.2505 71.8228 69.2808 71.8228 70.5474C71.8228 71.814 70.7925 72.8443 69.5259 72.8443H51.3731C50.4671 72.8443 49.7324 73.5789 49.7324 74.4849C49.7324 75.3908 50.4671 76.1255 51.3731 76.1255H63.9296C65.1962 76.1255 66.2265 77.1558 66.2265 78.4224C66.2263 79.6883 65.196 80.7186 63.9296 80.7186ZM80.7187 80.7186H80.7185H69.0109C69.329 80.0176 69.5077 79.2404 69.5077 78.4217C69.5077 77.6031 69.329 76.8259 69.0109 76.1249H69.5259C72.6016 76.1249 75.104 73.6226 75.104 70.5469C75.104 69.6498 74.8899 68.8021 74.5119 68.0504C76.8738 67.4017 78.6143 65.2369 78.6143 62.6721C78.6143 61.4278 78.2045 60.2776 77.5133 59.349V38.5558C77.5133 37.6498 76.7786 36.9151 75.8726 36.9151C74.9667 36.9151 74.232 37.6498 74.232 38.5558V57.2247C73.8464 57.1402 73.4466 57.0943 73.0361 57.0943H72.9823C73.3004 56.3933 73.4791 55.6161 73.4791 54.7974C73.4791 51.7216 70.9767 49.2195 67.901 49.2195H65.2636C68.064 48.0185 70.0309 45.2351 70.0309 41.9999C70.0309 37.6705 66.5087 34.1482 62.1791 34.1482C57.8497 34.1482 54.3274 37.6705 54.3274 41.9999C54.3274 45.2351 56.2944 48.0185 59.0947 49.2195H50.1263V18.0244C53.0572 17.3857 55.3699 15.0732 56.0084 12.1422H68.3497C68.9882 15.0732 71.3009 17.3857 74.2318 18.0244V23.1251C74.2318 24.031 74.9665 24.7657 75.8725 24.7657C76.7784 24.7657 77.5131 24.031 77.5131 23.1251V16.5596C77.5131 15.6537 76.7784 14.919 75.8725 14.919C73.4366 14.919 71.4551 12.9373 71.4551 10.5016C71.4551 9.59567 70.7205 8.861 69.8145 8.861H54.5438C53.6378 8.861 52.9031 9.59567 52.9031 10.5016C52.9031 12.9375 50.9215 14.919 48.4858 14.919C47.5798 14.919 46.8451 15.6537 46.8451 16.5596V49.2193H43.6406V3.28305L80.7187 3.28124V80.7186ZM62.1795 46.5704C59.6592 46.5704 57.6091 44.5201 57.6091 42.0001C57.6091 39.4801 59.6594 37.4296 62.1795 37.4296C64.6995 37.4296 66.7499 39.4799 66.7499 41.9999C66.7499 44.5199 64.6997 46.5704 62.1795 46.5704Z" fill="#4F4F4F"/>
</svg>
