<svg width="84" height="84" viewBox="0 0 98 98" fill="none" xmlns="http://www.w3.org/2000/svg">
<path d="M74.9501 25.1879C75.8136 25.1879 76.5138 24.4772 76.5138 23.6004V6.66745C76.5138 2.99111 73.5676 0 69.9465 0H6.56713C2.946 0 2.30142e-08 2.99111 2.30142e-08 6.66745V91.3327C2.30142e-08 95.0089 2.946 98 6.56713 98H69.9465C73.5676 98 76.5138 95.0089 76.5138 91.3326V74.3992C76.5138 73.5224 75.8138 72.8117 74.9501 72.8117C74.0866 72.8117 73.3864 73.5224 73.3864 74.3992V91.3326C73.3864 93.2583 71.8433 94.825 69.9465 94.825H6.56713C4.67031 94.825 3.12718 93.2583 3.12718 91.3326V6.66745C3.12718 4.74171 4.67031 3.17505 6.56713 3.17505H69.9465C71.8433 3.17505 73.3864 4.74171 73.3864 6.66745V23.6004C73.3864 24.4772 74.0866 25.1879 74.9501 25.1879Z" fill="black"/>
<path d="M8.23526 1.98603e-07H1.56368C0.700207 1.98603e-07 1.31181e-06 0.710691 1.31181e-06 1.58752C1.31181e-06 2.46416 0.700019 3.17505 1.56368 3.17505H8.23526C9.09874 3.17505 9.79895 2.46436 9.79895 1.58752C9.79895 0.710691 9.09874 1.98603e-07 8.23526 1.98603e-07Z" transform="translate(33.3574 6.77344)" fill="black"/>
<path d="M1.56368 -4.673e-08C0.700207 -4.673e-08 1.01262e-06 0.719305 1.01262e-06 1.59595C1.01262e-06 2.47259 0.700019 3.18347 1.56368 3.18347C2.42716 3.18347 3.12737 2.47278 3.12737 1.59595V1.57891C3.12737 0.70227 2.42716 -4.673e-08 1.56368 -4.673e-08Z" transform="translate(26.6858 6.78125)" fill="black"/>
<path d="M8.23526 1.8692e-07H1.56368C0.700207 1.8692e-07 1.31181e-06 0.710693 1.31181e-06 1.58752C1.31181e-06 2.46417 0.700019 3.17505 1.56368 3.17505H8.23526C9.09874 3.17505 9.79895 2.46436 9.79895 1.58752C9.79895 0.710693 9.09874 1.8692e-07 8.23526 1.8692e-07Z" transform="translate(33.3574 88.0518)" fill="black"/>
<path d="M61.6071 11.6417C62.4706 11.6417 63.1708 10.931 63.1708 10.0542V1.58752C63.1708 0.710883 62.4708 6.07491e-07 61.6071 6.07491e-07H1.56368C0.700207 6.07491e-07 1.72606e-08 0.710692 1.72606e-08 1.58752V69.3197C1.72606e-08 70.1963 0.700019 70.9072 1.56368 70.9072H61.6071C62.4706 70.9072 63.1708 70.1965 63.1708 69.3197V60.8534C63.1708 59.9768 62.4708 59.2659 61.6071 59.2659C60.7437 59.2659 60.0435 59.9766 60.0435 60.8534V67.7322H3.12718V3.17505H60.0435V10.0542C60.0435 10.931 60.7437 11.6417 61.6071 11.6417Z" transform="translate(6.67065 13.5459)" fill="black"/>
<path d="M14.9066 2.42996e-06H1.56368C0.700207 2.42996e-06 1.33482e-06 0.710689 1.33482e-06 1.58752C1.33482e-06 2.46435 0.700019 3.17505 1.56368 3.17505H14.9066C15.7701 3.17505 16.4703 2.46435 16.4703 1.58752C16.4703 0.710689 15.7703 2.42996e-06 14.9066 2.42996e-06Z" transform="translate(35.0254 69.4258)" fill="black"/>
<path d="M4.89938 2.42996e-06H1.56368C0.700207 2.42996e-06 9.89608e-07 0.710689 9.89608e-07 1.58752C9.89608e-07 2.46435 0.700018 3.17505 1.56368 3.17505H4.89938C5.76286 3.17505 6.46306 2.46435 6.46306 1.58752C6.46306 0.710689 5.76304 2.42996e-06 4.89938 2.42996e-06Z" transform="translate(25.0178 69.4258)" fill="black"/>
<path d="M8.23507 1.0047e-06C3.69428 1.0047e-06 1.05865e-06 3.7506 1.05865e-06 8.36062C1.05865e-06 12.9706 3.69428 16.7213 8.23507 16.7213C12.7759 16.7213 16.4701 12.9706 16.4701 8.36062C16.4701 3.7508 12.7759 1.0047e-06 8.23507 1.0047e-06ZM8.23507 13.5466C5.4186 13.5466 3.12718 11.2202 3.12718 8.36082C3.12718 5.5014 5.4186 3.17505 8.23507 3.17505C11.0516 3.17505 13.343 5.5014 13.343 8.36082C13.343 11.22 11.0514 13.5466 8.23507 13.5466Z" transform="translate(30.0217 27.0928)" fill="black"/>
<path d="M21.4349 0.672804C20.1171 -0.383376 18.1651 -0.174551 16.9914 1.14807C16.0141 2.24923 14.6812 2.8556 13.2389 2.8556C11.7966 2.8556 10.4637 2.24923 9.48636 1.14807C8.31256 -0.17436 6.3605 -0.383184 5.04285 0.672804C1.838 3.24052 -3.45212e-07 7.08338 -3.45212e-07 11.2162V16.2961C-3.45212e-07 17.1728 0.70002 17.8837 1.56368 17.8837H24.9139C25.7774 17.8837 26.4776 17.173 26.4776 16.2961V11.2162C26.4778 7.08338 24.6398 3.24033 21.4349 0.672804ZM23.3506 14.7084H3.12756V11.216C3.12756 8.06128 4.53193 5.12664 6.97172 3.16779C6.99416 3.16377 7.08352 3.18348 7.16327 3.27344C8.71866 5.02538 10.9332 6.03027 13.2389 6.03027C15.5448 6.03027 17.7593 5.02538 19.3145 3.27344C19.3945 3.18348 19.4842 3.16415 19.4959 3.16377L19.4976 3.1651C21.9461 5.12683 23.3504 8.06128 23.3504 11.2162V14.7084H23.3506Z" transform="translate(25.0178 46.25)" fill="black"/>
<rect x="2" y="2" width="38.8981" height="41.6336" rx="2" transform="translate(55.1018 26.9316)" stroke="black" stroke-width="4"/>
<rect width="26.2566" height="2.24427" transform="translate(63.6077 40.0225)" fill="black"/>
<rect width="17.0113" height="2.24427" transform="translate(63.6077 44.8857)" fill="black"/>
<rect width="20.7094" height="2.24427" transform="translate(63.6077 49.374)" fill="black"/>
<rect width="26.2566" height="2.24427" transform="translate(63.6077 54.2363)" fill="black"/>
<rect width="20.7094" height="2.24427" transform="translate(63.6077 59.0996)" fill="black"/>
</svg>
